<svg id="visual" viewBox="0 0 960 540" width="960" height="540" xmlns="http://www.w3.org/2000/svg" xmlns:xlink="http://www.w3.org/1999/xlink" version="1.1"><rect x="0" y="0" width="960" height="540" fill="#001a2f"></rect><path d="M0 374L26.7 373.2C53.3 372.3 106.7 370.7 160 376.2C213.3 381.7 266.7 394.3 320 397.5C373.3 400.7 426.7 394.3 480 393.2C533.3 392 586.7 396 640 391.7C693.3 387.3 746.7 374.7 800 371.7C853.3 368.7 906.7 375.3 933.3 378.7L960 382L960 541L933.3 541C906.7 541 853.3 541 800 541C746.7 541 693.3 541 640 541C586.7 541 533.3 541 480 541C426.7 541 373.3 541 320 541C266.7 541 213.3 541 160 541C106.7 541 53.3 541 26.7 541L0 541Z" fill="#fff443"></path><path d="M0 452L26.7 448C53.3 444 106.7 436 160 432.3C213.3 428.7 266.7 429.3 320 423.8C373.3 418.3 426.7 406.7 480 409.8C533.3 413 586.7 431 640 435.3C693.3 439.7 746.7 430.3 800 421.7C853.3 413 906.7 405 933.3 401L960 397L960 541L933.3 541C906.7 541 853.3 541 800 541C746.7 541 693.3 541 640 541C586.7 541 533.3 541 480 541C426.7 541 373.3 541 320 541C266.7 541 213.3 541 160 541C106.7 541 53.3 541 26.7 541L0 541Z" fill="#e3dd33"></path><path d="M0 443L26.7 448.7C53.3 454.3 106.7 465.7 160 464.3C213.3 463 266.7 449 320 447.3C373.3 445.7 426.7 456.3 480 460.3C533.3 464.3 586.7 461.7 640 458.7C693.3 455.7 746.7 452.3 800 454C853.3 455.7 906.7 462.3 933.3 465.7L960 469L960 541L933.3 541C906.7 541 853.3 541 800 541C746.7 541 693.3 541 640 541C586.7 541 533.3 541 480 541C426.7 541 373.3 541 320 541C266.7 541 213.3 541 160 541C106.7 541 53.3 541 26.7 541L0 541Z" fill="#c8c522"></path><path d="M0 514L26.7 515.7C53.3 517.3 106.7 520.7 160 514C213.3 507.3 266.7 490.7 320 490.2C373.3 489.7 426.7 505.3 480 503.5C533.3 501.7 586.7 482.3 640 478.7C693.3 475 746.7 487 800 493.7C853.3 500.3 906.7 501.7 933.3 502.3L960 503L960 541L933.3 541C906.7 541 853.3 541 800 541C746.7 541 693.3 541 640 541C586.7 541 533.3 541 480 541C426.7 541 373.3 541 320 541C266.7 541 213.3 541 160 541C106.7 541 53.3 541 26.7 541L0 541Z" fill="#aeae0e"></path></svg>