<?xml version="1.0" encoding="UTF-8"?>
<!DOCTYPE svg PUBLIC "-//W3C//DTD SVG 1.1//EN" "http://www.w3.org/Graphics/SVG/1.1/DTD/svg11.dtd">
<!-- Creator: CorelDRAW -->
<svg xmlns="http://www.w3.org/2000/svg" xml:space="preserve" width="6.82666in" height="6.82666in" style="shape-rendering:geometricPrecision; text-rendering:geometricPrecision; image-rendering:optimizeQuality; fill-rule:evenodd; clip-rule:evenodd"
viewBox="0 0 6.82666 6.82666"
 xmlns:xlink="http://www.w3.org/1999/xlink">
 <defs>
  <style type="text/css">
   <![CDATA[
    .fil0 {fill:#607D8B}
    .fil1 {fill:#FFFFFE}
   ]]>
  </style>
 </defs>
 <g id="Layer_x0020_1">
  <metadata id="CorelCorpID_0Corel-Layer"/>
  <rect class="fil0" width="6.82666" height="6.82666" rx="0.853335" ry="0.853335"/>
  <g id="_425979008">
   <g>
    <path id="_425982488" class="fil1" d="M3.41333 0.853331c0.153583,0.18848 0.256913,0.540717 0.256913,0.944173 0,0.252185 -0.0403819,0.484335 -0.108161,0.669008 -0.0484803,-0.00755512 -0.0981535,-0.0115079 -0.148752,-0.0115079 -0.0505984,0 -0.100272,0.00395276 -0.148752,0.0115079 -0.0677795,-0.184673 -0.108161,-0.416823 -0.108161,-0.669008 0,-0.403457 0.103331,-0.755693 0.256913,-0.944173z"/>
    <path id="_425982656" class="fil1" d="M4.69333 1.1963c0.0387638,0.240028 -0.0478622,0.596732 -0.249594,0.946138 -0.126122,0.218449 -0.277209,0.399346 -0.42828,0.525394 -0.0769252,-0.0622087 -0.163657,-0.112736 -0.257524,-0.148941 0.0336457,-0.193795 0.114744,-0.415 0.240819,-0.633362 0.201724,-0.349409 0.467335,-0.602787 0.694579,-0.689228z"/>
    <path id="_425982464" class="fil1" d="M5.63035 2.13333c-0.086437,0.227248 -0.339815,0.492854 -0.689224,0.694579 -0.218362,0.126071 -0.439567,0.207173 -0.633362,0.240819 -0.0361929,-0.093874 -0.0867362,-0.180598 -0.148941,-0.257524 0.126043,-0.151071 0.306941,-0.302157 0.525394,-0.42828 0.349402,-0.201732 0.706114,-0.288358 0.946134,-0.249594z"/>
    <path id="_425982200" class="fil1" d="M5.97333 3.41333c-0.188484,0.153587 -0.540717,0.256921 -0.944173,0.256917 -0.252181,0 -0.484335,-0.0403819 -0.669008,-0.108161 0.00755512,-0.0484803 0.0115079,-0.0981535 0.0115079,-0.148752 0,-0.0505984 -0.00395276,-0.100272 -0.0115079,-0.148752 0.184673,-0.0677795 0.416823,-0.108165 0.669008,-0.108161 0.403457,-3.93701e-006 0.755693,0.103335 0.944173,0.256909z"/>
    <path id="_425981744" class="fil1" d="M5.63036 4.69333c-0.240031,0.0387638 -0.596736,-0.0478622 -0.946138,-0.249594 -0.218449,-0.126122 -0.399346,-0.277209 -0.525394,-0.42828 0.0622087,-0.0769252 0.112736,-0.163657 0.148941,-0.257524 0.193795,0.0336457 0.415,0.114744 0.633362,0.240819 0.349409,0.201724 0.602787,0.467335 0.689228,0.694579z"/>
    <path id="_425981600" class="fil1" d="M4.69333 5.63035c-0.227248,-0.0864449 -0.492854,-0.339815 -0.694579,-0.689224 -0.126071,-0.218362 -0.207173,-0.439567 -0.240819,-0.633362 0.093874,-0.0361929 0.180598,-0.0867362 0.257524,-0.148941 0.151071,0.126043 0.302157,0.306941 0.42828,0.525394 0.201732,0.349402 0.288358,0.706114 0.249594,0.946134z"/>
    <path id="_425982080" class="fil1" d="M3.41333 5.97333c-0.153587,-0.188484 -0.256921,-0.540717 -0.256917,-0.944173 0,-0.252181 0.0403819,-0.484335 0.108161,-0.669008 0.0484803,0.00755512 0.0981535,0.0115079 0.148752,0.0115079 0.0505984,0 0.100272,-0.00395276 0.148752,-0.0115079 0.0677795,0.184673 0.108165,0.416823 0.108161,0.669008 3.93701e-006,0.403457 -0.103335,0.755693 -0.256909,0.944173z"/>
    <path id="_425981552" class="fil1" d="M2.13333 5.63036c-0.0387638,-0.240031 0.0478622,-0.596736 0.249594,-0.946138 0.126122,-0.218449 0.277209,-0.399346 0.42828,-0.525394 0.0769252,0.0622087 0.163657,0.112736 0.257524,0.148941 -0.0336457,0.193795 -0.114744,0.415 -0.240819,0.633362 -0.201724,0.349409 -0.467335,0.602787 -0.694579,0.689228z"/>
    <path id="_425982008" class="fil1" d="M1.19631 4.69333c0.0864449,-0.227248 0.339815,-0.492854 0.689224,-0.694579 0.218362,-0.126071 0.439567,-0.207173 0.633362,-0.240819 0.0361929,0.093874 0.0867362,0.180598 0.148941,0.257524 -0.126043,0.151071 -0.306941,0.302157 -0.525394,0.42828 -0.349402,0.201732 -0.706114,0.288358 -0.946134,0.249594z"/>
    <path id="_425980712" class="fil1" d="M0.853331 3.41333c0.188484,-0.153587 0.540717,-0.256921 0.944173,-0.256917 0.252181,0 0.484335,0.0403819 0.669008,0.108161 -0.00755512,0.0484803 -0.0115079,0.0981535 -0.0115079,0.148752 0,0.0505984 0.00395276,0.100272 0.0115079,0.148752 -0.184673,0.0677795 -0.416823,0.108165 -0.669008,0.108161 -0.403457,3.93701e-006 -0.755693,-0.103335 -0.944173,-0.256909z"/>
    <path id="_425981264" class="fil1" d="M1.1963 2.13333c0.240031,-0.0387638 0.596736,0.0478622 0.946138,0.249594 0.218449,0.126122 0.399346,0.277209 0.525394,0.42828 -0.0622087,0.0769252 -0.112736,0.163657 -0.148941,0.257524 -0.193795,-0.0336457 -0.415,-0.114744 -0.633362,-0.240819 -0.349409,-0.201724 -0.602787,-0.467335 -0.689228,-0.694579z"/>
    <path id="_425981168" class="fil1" d="M2.13333 1.19631c0.227248,0.0864449 0.492854,0.339815 0.694579,0.689224 0.126071,0.218362 0.207173,0.439567 0.240819,0.633362 -0.093874,0.0361929 -0.180598,0.0867362 -0.257524,0.148941 -0.151071,-0.126043 -0.302157,-0.306941 -0.42828,-0.525394 -0.201732,-0.349402 -0.288358,-0.706114 -0.249594,-0.946134z"/>
   </g>
   <g>
    <path id="_425980880" class="fil1" d="M2.79036 1.0884c0.110024,0.0794213 0.217996,0.215571 0.30813,0.389748 -0.0154134,0.111248 -0.0220709,0.220508 -0.0220709,0.319358 0,0.224606 0.0312638,0.468913 0.108764,0.684898 -0.0133583,0.00326378 -0.0266142,0.0067874 -0.039748,0.0106024 -0.0408819,-0.225776 -0.135957,-0.452972 -0.248248,-0.647469 -0.0494252,-0.0856102 -0.109823,-0.176898 -0.178791,-0.265535 -0.00903543,-0.195913 0.0163976,-0.367811 0.0719646,-0.491602z"/>
    <path id="_425980640" class="fil1" d="M4.0363 1.0884c0.0555669,0.123795 0.081,0.295693 0.0719685,0.491602 -0.0689685,0.0886378 -0.129366,0.179929 -0.178791,0.265535 -0.112291,0.194496 -0.207366,0.421689 -0.248248,0.647469 -0.0131339,-0.00381496 -0.0263898,-0.00733858 -0.039748,-0.0106024 0.0775,-0.21598 0.108764,-0.460291 0.108764,-0.684898 0,-0.0988504 -0.00665748,-0.20811 -0.0220709,-0.319358 0.0901299,-0.174177 0.198106,-0.310323 0.308126,-0.389748z"/>
    <path id="_425980064" class="fil1" d="M5.1153 1.71136c-0.013752,0.134776 -0.0774803,0.296055 -0.182949,0.460921 -0.0995276,0.0403661 -0.196193,0.0882913 -0.288126,0.141366 -0.194555,0.112327 -0.390559,0.26161 -0.53887,0.436776 -0.00949606,-0.00990945 -0.0192008,-0.0196142 -0.0291102,-0.0291102 0.175165,-0.148315 0.324445,-0.344315 0.436776,-0.53887 0.0530787,-0.0919331 0.101004,-0.188602 0.14137,-0.28813 0.164866,-0.105469 0.326142,-0.169197 0.460909,-0.182953z"/>
    <path id="_425980112" class="fil1" d="M5.73826 2.79036c-0.0794213,0.110024 -0.215563,0.218 -0.38974,0.308134 -0.111252,-0.0154134 -0.220512,-0.0220709 -0.319366,-0.0220709 -0.224602,0 -0.468913,0.0312638 -0.684898,0.108764 -0.00326378,-0.0133583 -0.0067874,-0.0266142 -0.0106024,-0.039748 0.225776,-0.0408819 0.452972,-0.135957 0.647469,-0.248248 0.0856063,-0.0494252 0.176898,-0.109819 0.265535,-0.178791 0.195909,-0.00903543 0.367811,0.0163976 0.491602,0.0719606z"/>
    <path id="_425980496" class="fil1" d="M5.73826 4.0363c-0.123799,0.0555669 -0.295697,0.081 -0.491602,0.0719685 -0.0886378,-0.0689685 -0.179929,-0.129366 -0.265535,-0.178791 -0.194496,-0.112291 -0.421689,-0.207366 -0.647469,-0.248248 0.00381496,-0.0131339 0.00733858,-0.0263898 0.0106024,-0.039748 0.215984,0.0775 0.460295,0.108764 0.684898,0.108764 0.0988543,0 0.208114,-0.00665748 0.319362,-0.0220709 0.174177,0.0901299 0.310319,0.198106 0.389744,0.308126z"/>
    <path id="_425979656" class="fil1" d="M5.1153 5.1153c-0.134776,-0.013752 -0.296055,-0.0774764 -0.460921,-0.182949 -0.0403661,-0.0995276 -0.0882913,-0.196193 -0.141366,-0.288126 -0.112327,-0.194555 -0.26161,-0.390559 -0.436776,-0.53887 0.00990945,-0.00949606 0.0196142,-0.0192008 0.0291102,-0.0291102 0.148315,0.175165 0.344315,0.324445 0.53887,0.436776 0.0919331,0.0530787 0.188602,0.101004 0.28813,0.14137 0.105469,0.164866 0.169197,0.326142 0.182953,0.460909z"/>
    <path id="_425979344" class="fil1" d="M4.0363 5.73826c-0.110024,-0.0794213 -0.218,-0.215563 -0.308134,-0.38974 0.0154134,-0.111252 0.0220709,-0.220512 0.0220709,-0.319366 0,-0.224602 -0.0312638,-0.468913 -0.108764,-0.684898 0.0133583,-0.00326378 0.0266142,-0.0067874 0.039748,-0.0106024 0.0408819,0.225776 0.135957,0.452972 0.248248,0.647469 0.0494252,0.0856102 0.109823,0.176898 0.178791,0.265535 0.00903543,0.195913 -0.0163976,0.367811 -0.0719606,0.491602z"/>
    <path id="_425979320" class="fil1" d="M2.79037 5.73826c-0.0555669,-0.123799 -0.081,-0.295697 -0.0719685,-0.491602 0.0689685,-0.0886378 0.129366,-0.179929 0.178791,-0.265535 0.112291,-0.194496 0.207366,-0.421689 0.248248,-0.647469 0.0131339,0.00381496 0.0263898,0.00733858 0.039748,0.0106024 -0.0775,0.215984 -0.108764,0.460295 -0.108764,0.684898 0,0.0988543 0.00665748,0.208114 0.0220709,0.319362 -0.0901299,0.174177 -0.198106,0.310319 -0.308126,0.389744z"/>
    <path id="_425979488" class="fil1" d="M1.71137 5.1153c0.013752,-0.134776 0.0774764,-0.296055 0.182949,-0.460921 0.0995276,-0.0403661 0.196193,-0.0882913 0.288126,-0.141366 0.194555,-0.112327 0.390559,-0.26161 0.53887,-0.436776 0.00949606,0.00990945 0.0192008,0.0196142 0.0291102,0.0291102 -0.175165,0.148315 -0.324445,0.344315 -0.436776,0.53887 -0.0530787,0.0919331 -0.101004,0.188602 -0.14137,0.28813 -0.164866,0.105469 -0.326142,0.169197 -0.460909,0.182953z"/>
    <path id="_425979128" class="fil1" d="M1.0884 4.0363c0.0794213,-0.110024 0.215563,-0.218 0.38974,-0.308134 0.111252,0.0154134 0.220512,0.0220709 0.319366,0.0220709 0.224602,0 0.468913,-0.0312638 0.684898,-0.108764 0.00326378,0.0133583 0.0067874,0.0266142 0.0106024,0.039748 -0.225776,0.0408819 -0.452972,0.135957 -0.647469,0.248248 -0.0856102,0.0494252 -0.176898,0.109823 -0.265535,0.178791 -0.195913,0.00903543 -0.367811,-0.0163976 -0.491602,-0.0719606z"/>
    <path id="_425978864" class="fil1" d="M1.0884 2.79037c0.123799,-0.0555669 0.295697,-0.081 0.491602,-0.0719685 0.0886378,0.0689685 0.179929,0.129366 0.265535,0.178791 0.194496,0.112291 0.421689,0.207366 0.647469,0.248248 -0.00381496,0.0131339 -0.00733858,0.0263898 -0.0106024,0.039748 -0.215984,-0.0775 -0.460295,-0.108764 -0.684898,-0.108764 -0.0988543,0 -0.208114,0.00665748 -0.319362,0.0220709 -0.174177,-0.0901299 -0.310319,-0.198106 -0.389744,-0.308126z"/>
    <path id="_425978696" class="fil1" d="M1.71136 1.71137c0.134776,0.013752 0.296055,0.0774764 0.460921,0.182949 0.0403661,0.0995276 0.0882913,0.196193 0.141366,0.288126 0.112327,0.194555 0.26161,0.390559 0.436776,0.53887 -0.00990945,0.00949606 -0.0196142,0.0192008 -0.0291102,0.0291102 -0.148315,-0.175165 -0.344315,-0.324445 -0.53887,-0.436776 -0.0919331,-0.0530787 -0.188602,-0.101004 -0.28813,-0.14137 -0.105469,-0.164866 -0.169197,-0.326142 -0.182953,-0.460909z"/>
   </g>
   <path id="_425978624" class="fil1" d="M3.41333 2.53502c0.202169,0 0.388346,0.0683504 0.536791,0.183142l0 0.0622205 0.0720866 0c0.0502008,0.0482992 0.0946614,0.102528 0.132276,0.161531l-0.0735276 0 0 0.113717 0.103941 0 0 -0.0622402c0.0381535,0.069937 0.0670748,0.145634 0.085126,0.225457l-0.0582283 0 0 0.113717 0.0761732 0c0.0024252,0.0265984 0.00367323,0.0535394 0.00367323,0.0807677 0,0.294945 -0.145398,0.555929 -0.368413,0.715205l0 -0.0822559 -0.103941 0 0 0.113717 0.0566654 0c-0.134354,0.0834213 -0.292843,0.131646 -0.462622,0.131646 -0.202173,0 -0.388362,-0.0683386 -0.536787,-0.183154l0 -0.0622087 -0.0720394 0c-0.0501969,-0.048311 -0.094685,-0.102516 -0.132299,-0.161531l0.0735039 0 0 -0.113717 -0.103941 0 0 0.0622283c-0.0381417,-0.0699409 -0.0670551,-0.145626 -0.0850984,-0.225445l0.0582008 0 0 -0.113717 -0.0761181 0c-0.0024252,-0.0266024 -0.00373228,-0.0535315 -0.00373228,-0.0807677 0,-0.294945 0.145398,-0.555929 0.368417,-0.715209l0 0.0822598 0.103941 0 0 -0.113717 -0.0566693 0c0.134354,-0.0834213 0.292843,-0.131646 0.462622,-0.131646zm0.248228 1.51126l-0.103945 0 0 0.113717 0.103945 0 0 -0.113717zm-0.261677 0l-0.103941 0 0 0.113717 0.103941 0 0 -0.113717zm-0.261669 0l-0.103941 0 0 0.113717 0.103941 0 0 -0.113717zm0.91585 -0.275248l-0.103941 0 0 0.113717 0.103941 0 0 -0.113717zm-0.261669 0l-0.103941 0 0 0.113717 0.103941 0 0 -0.113717zm-0.261669 0l-0.103941 0 0 0.113717 0.103941 0 0 -0.113717zm-0.261673 0l-0.103941 0 0 0.113717 0.103941 0 0 -0.113717zm-0.261673 0l-0.103941 0 0 0.113717 0.103941 0 0 -0.113717zm1.17752 -0.276933l-0.103941 0 0 0.113717 0.103941 0 0 -0.113717zm-0.261669 0l-0.103941 0 0 0.113717 0.103941 0 0 -0.113717zm-0.261669 0l-0.103945 0 0 0.113717 0.103945 0 0 -0.113717zm-0.261677 0l-0.103941 0 0 0.113717 0.103941 0 0 -0.113717zm-0.261669 0l-0.103941 0 0 0.113717 0.103941 0 0 -0.113717zm-0.261669 0l-0.103941 0 0 0.113717 0.103941 0 0 -0.113717zm1.17752 -0.275252l-0.103941 0 0 0.113717 0.103941 0 0 -0.113717zm-0.261669 0l-0.103941 0 0 0.113717 0.103941 0 0 -0.113717zm-0.261669 0l-0.103941 0 0 0.113717 0.103941 0 0 -0.113717zm-0.261673 0l-0.103941 0 0 0.113717 0.103941 0 0 -0.113717zm-0.261673 0l-0.103941 0 0 0.113717 0.103941 0 0 -0.113717zm-0.261669 0l-0.103941 0 0 0.113717 0.103941 0 0 -0.113717zm1.17752 -0.276933l-0.103941 0 0 0.113717 0.103941 0 0 -0.113717zm-0.261669 0l-0.103945 0 0 0.113717 0.103945 0 0 -0.113717zm-0.261677 0l-0.103941 0 0 0.113717 0.103941 0 0 -0.113717zm-0.261669 0l-0.103941 0 0 0.113717 0.103941 0 0 -0.113717zm-0.261669 0l-0.103941 0 0 0.113717 0.103941 0 0 -0.113717zm0.91585 -0.275248l-0.103941 0 0 0.113717 0.103941 0 0 -0.113717zm-0.261669 0l-0.103941 0 0 0.113717 0.103941 0 0 -0.113717zm-0.261673 0l-0.103941 0 0 0.113717 0.103941 0 0 -0.113717z"/>
  </g>
 </g>
</svg>
